{"asset":{"version":"2.0","generator":"THREE.GLTFExporter"},"scenes":[{"name":"AuxScene","nodes":[3,7,8]}],"scene":0,"nodes":[{"matrix":[0,0,0,0,0,0,0,0,0,0,0,0,0.000009027960913954303,0.000004626908321370136,-0.004919008817523717,1],"name":"legs004","extras":{"transformData":{"inheritType":1,"eulerOrder":"ZYX","translation":[0.000009027960913954303,0.000004626908321370138,-0.004919008817523718],"parentMatrix":{"elements":[100,0,0,0,0,-0.000028212996849852345,-99.999999999996,0,0,99.999999999996,-0.000028212996849852345,0,-0.000004259138222550973,0.5086991786956787,6.717228728803093e-8,1]},"parentMatrixWorld":{"elements":[100,0,0,0,0,-0.000028212996849852345,-99.999999999996,0,0,99.999999999996,-0.000028212996849852345,0,-0.000004259138222550973,0.5086991786956787,6.717228728803093e-8,1]}}},"mesh":1},{"matrix":[0.5,0,0,0,0,0.5,0,0,0,0,1,0,4.2145767764623074e-8,-7.146607750030394e-10,-0.0047424924559891215,1],"name":"bottom004","extras":{"transformData":{"inheritType":1,"eulerOrder":"ZYX","translation":[4.214576776462309e-8,-7.146607750030398e-10,-0.004742492455989122],"parentMatrix":{"elements":[100,0,0,0,0,-0.000028212996849852345,-99.999999999996,0,0,99.999999999996,-0.000028212996849852345,0,-0.000004259138222550973,0.5086991786956787,6.717228728803093e-8,1]},"parentMatrixWorld":{"elements":[100,0,0,0,0,-0.000028212996849852345,-99.999999999996,0,0,99.999999999996,-0.000028212996849852345,0,-0.000004259138222550973,0.5086991786956787,6.717228728803093e-8,1]}}},"mesh":2},{"matrix":[100,0,0,0,0,-0.000028212996849852345,-99.999999999996,0,0,99.999999999996,-0.000028212996849852345,0,-0.000004259138222550973,0.5086991786956787,6.717228728803093e-8,1],"name":"pipe003","extras":{"transformData":{"inheritType":1,"eulerOrder":"ZYX","translation":[-0.000004259138222550973,0.5086991786956787,6.717228728803093e-8],"rotation":[-90.0000161648565,0,0],"scale":[100,100,100],"parentMatrix":{"elements":[1,0,0,0,0,1,0,0,0,0,1,0,0,0,0,1]},"parentMatrixWorld":{"elements":[1,0,0,0,0,1,0,0,0,0,1,0,0,0,0,1]}}},"mesh":0,"children":[0,1]},{"children":[2]},{"matrix":[0,0,0,0,0,0,0,0,0,0,0,0,0.000009027960913954303,0.000004626908321370136,-0.004919008817523717,1],"name":"legs004","extras":{"transformData":{"inheritType":1,"eulerOrder":"ZYX","translation":[0.000009027960913954303,0.000004626908321370138,-0.004919008817523718],"parentMatrix":{"elements":[100,0,0,0,0,-0.000028212996849852345,-99.999999999996,0,0,99.999999999996,-0.000028212996849852345,0,-0.000004259138222550973,0.5086991786956787,6.717228728803093e-8,1]},"parentMatrixWorld":{"elements":[100,0,0,0,0,-0.000028212996849852345,-99.999999999996,0,0,99.999999999996,-0.000028212996849852345,0,-0.000004259138222550973,0.5086991786956787,-0.9999999328277127,1]}}},"mesh":4},{"matrix":[0.5,0,0,0,0,0.5,0,0,0,0,1,0,4.2145767764623074e-8,-7.146607750030394e-10,-0.0047424924559891215,1],"name":"bottom004","extras":{"transformData":{"inheritType":1,"eulerOrder":"ZYX","translation":[4.214576776462309e-8,-7.146607750030398e-10,-0.004742492455989122],"parentMatrix":{"elements":[100,0,0,0,0,-0.000028212996849852345,-99.999999999996,0,0,99.999999999996,-0.000028212996849852345,0,-0.000004259138222550973,0.5086991786956787,6.717228728803093e-8,1]},"parentMatrixWorld":{"elements":[100,0,0,0,0,-0.000028212996849852345,-99.999999999996,0,0,99.999999999996,-0.000028212996849852345,0,-0.000004259138222550973,0.5086991786956787,-0.9999999328277127,1]}}},"mesh":5},{"matrix":[100,0,0,0,0,-0.000028212996849852345,-99.999999999996,0,0,99.999999999996,-0.000028212996849852345,0,-0.000004259138222550973,0.5086991786956787,6.717228728803093e-8,1],"name":"pipe003","extras":{"transformData":{"inheritType":1,"eulerOrder":"ZYX","translation":[-0.000004259138222550973,0.5086991786956787,6.717228728803093e-8],"rotation":[-90.0000161648565,0,0],"scale":[100,100,100],"parentMatrix":{"elements":[1,0,0,0,0,1,0,0,0,0,1,0,0,0,-1,1]},"parentMatrixWorld":{"elements":[1,0,0,0,0,1,0,0,0,0,1,0,0,0,-1,1]}}},"mesh":3,"children":[4,5]},{"matrix":[1,0,0,0,0,1,0,0,0,0,1,0,0,0,-1,1],"children":[6]},{"matrix":[0.0007963267107332639,0,0.9999996829318347,0,0,0.1,0,0,-0.9999996829318347,0,0.0007963267107332639,0,0,0.78,-0.5,1],"name":"Box2","mesh":6}],"bufferViews":[{"buffer":0,"byteOffset":0,"byteLength":540,"target":34962,"byteStride":12},{"buffer":0,"byteOffset":540,"byteLength":540,"target":34962,"byteStride":12},{"buffer":0,"byteOffset":1080,"byteLength":360,"target":34962,"byteStride":8},{"buffer":0,"byteOffset":1440,"byteLength":136,"target":34962,"byteStride":3},{"buffer":0,"byteOffset":1576,"byteLength":476,"target":34963},{"buffer":0,"byteOffset":2052,"byteLength":5184,"target":34962,"byteStride":12},{"buffer":0,"byteOffset":7236,"byteLength":5184,"target":34962,"byteStride":12},{"buffer":0,"byteOffset":12420,"byteLength":3456,"target":34962,"byteStride":8},{"buffer":0,"byteOffset":15876,"byteLength":1296,"target":34962,"byteStride":3},{"buffer":0,"byteOffset":17172,"byteLength":5088,"target":34963},{"buffer":0,"byteOffset":22260,"byteLength":2724,"target":34962,"byteStride":12},{"buffer":0,"byteOffset":24984,"byteLength":2724,"target":34962,"byteStride":12},{"buffer":0,"byteOffset":27708,"byteLength":1816,"target":34962,"byteStride":8},{"buffer":0,"byteOffset":29524,"byteLength":684,"target":34962,"byteStride":3},{"buffer":0,"byteOffset":30208,"byteLength":2136,"target":34963},{"buffer":0,"byteOffset":32344,"byteLength":540,"target":34962,"byteStride":12},{"buffer":0,"byteOffset":32884,"byteLength":540,"target":34962,"byteStride":12},{"buffer":0,"byteOffset":33424,"byteLength":360,"target":34962,"byteStride":8},{"buffer":0,"byteOffset":33784,"byteLength":136,"target":34962,"byteStride":3},{"buffer":0,"byteOffset":33920,"byteLength":476,"target":34963},{"buffer":0,"byteOffset":34396,"byteLength":5184,"target":34962,"byteStride":12},{"buffer":0,"byteOffset":39580,"byteLength":5184,"target":34962,"byteStride":12},{"buffer":0,"byteOffset":44764,"byteLength":3456,"target":34962,"byteStride":8},{"buffer":0,"byteOffset":48220,"byteLength":1296,"target":34962,"byteStride":3},{"buffer":0,"byteOffset":49516,"byteLength":5088,"target":34963},{"buffer":0,"byteOffset":54604,"byteLength":2724,"target":34962,"byteStride":12},{"buffer":0,"byteOffset":57328,"byteLength":2724,"target":34962,"byteStride":12},{"buffer":0,"byteOffset":60052,"byteLength":1816,"target":34962,"byteStride":8},{"buffer":0,"byteOffset":61868,"byteLength":684,"target":34962,"byteStride":3},{"buffer":0,"byteOffset":62552,"byteLength":2136,"target":34963},{"buffer":0,"byteOffset":64688,"byteLength":48,"target":34962,"byteStride":12},{"buffer":0,"byteOffset":64736,"byteLength":48,"target":34962,"byteStride":12},{"buffer":0,"byteOffset":64784,"byteLength":32,"target":34962,"byteStride":8},{"buffer":0,"byteOffset":64816,"byteLength":12,"target":34962,"byteStride":3},{"buffer":0,"byteOffset":64828,"byteLength":12,"target":34963}],"buffers":[{"byteLength":64840,"uri":"data:application/octet-stream;base64,"}],"accessors":[{"bufferView":0,"componentType":5126,"count":45,"max":[0.00020462076645344496,0.00020147071336396039,0.003622049931436777],"min":[-0.00019219778187107295,-0.00020147101895418018,-0.004691596142947674],"type":"VEC3"},{"bufferView":1,"componentType":5126,"count":45,"max":[0.9389359354972839,0.9247099161148071,1],"min":[-0.8824068307876587,-0.9247097373008728,-0.6376175284385681],"type":"VEC3"},{"bufferView":2,"componentType":5126,"count":45,"max":[0.8611106872558594,1],"min":[-1.123023509979248,1],"type":"VEC2"},{"bufferView":3,"componentType":5121,"count":45,"max":[255,255,255],"min":[255,255,255],"type":"VEC3","normalized":true},{"bufferView":4,"componentType":5123,"count":237,"max":[44],"min":[0],"type":"SCALAR"},{"bufferView":5,"componentType":5126,"count":432,"max":[0.0016783239552751184,0.0016404199413955212,0.00017634002142585814],"min":[-0.001660423236899078,-0.0016404212219640613,-0.00017409108113497496],"type":"VEC3"},{"bufferView":6,"componentType":5126,"count":432,"max":[0.9543935060501099,0.93989497423172,0.9945273995399475],"min":[-0.9543936848640442,-0.9398944973945618,-0.9964233040809631],"type":"VEC3"},{"bufferView":7,"componentType":5126,"count":432,"max":[15.275934219360352,1.000000238418579],"min":[-8.375814437866211,0.9999998211860657],"type":"VEC2"},{"bufferView":8,"componentType":5121,"count":432,"max":[255,255,255],"min":[255,255,255],"type":"VEC3","normalized":true},{"bufferView":9,"componentType":5123,"count":2544,"max":[431],"min":[0],"type":"SCALAR"},{"bufferView":10,"componentType":5126,"count":227,"max":[0.0022668875753879547,0.0022544695530086756,0.00021794860367663205],"min":[-0.0022668864112347364,-0.002254468621686101,-0.0002179483708459884],"type":"VEC3"},{"bufferView":11,"componentType":5126,"count":227,"max":[0.9267934560775757,0.9217166900634766,0.995447039604187],"min":[-0.9267935752868652,-0.9217167496681213,-0.9954469799995422],"type":"VEC3"},{"bufferView":12,"componentType":5126,"count":227,"max":[0.9955427646636963,1],"min":[-0.016666650772094727,0],"type":"VEC2"},{"bufferView":13,"componentType":5121,"count":227,"max":[255,255,255],"min":[255,255,255],"type":"VEC3","normalized":true},{"bufferView":14,"componentType":5123,"count":1068,"max":[226],"min":[0],"type":"SCALAR"},{"bufferView":15,"componentType":5126,"count":45,"max":[0.00020462076645344496,0.00020147071336396039,0.003622049931436777],"min":[-0.00019219778187107295,-0.00020147101895418018,-0.004691596142947674],"type":"VEC3"},{"bufferView":16,"componentType":5126,"count":45,"max":[0.9389359354972839,0.9247099161148071,1],"min":[-0.8824068307876587,-0.9247097373008728,-0.6376175284385681],"type":"VEC3"},{"bufferView":17,"componentType":5126,"count":45,"max":[0.8611106872558594,1],"min":[-1.123023509979248,1],"type":"VEC2"},{"bufferView":18,"componentType":5121,"count":45,"max":[255,255,255],"min":[255,255,255],"type":"VEC3","normalized":true},{"bufferView":19,"componentType":5123,"count":237,"max":[44],"min":[0],"type":"SCALAR"},{"bufferView":20,"componentType":5126,"count":432,"max":[0.0016783239552751184,0.0016404199413955212,0.00017634002142585814],"min":[-0.001660423236899078,-0.0016404212219640613,-0.00017409108113497496],"type":"VEC3"},{"bufferView":21,"componentType":5126,"count":432,"max":[0.9543935060501099,0.93989497423172,0.9945273995399475],"min":[-0.9543936848640442,-0.9398944973945618,-0.9964233040809631],"type":"VEC3"},{"bufferView":22,"componentType":5126,"count":432,"max":[15.275934219360352,1.000000238418579],"min":[-8.375814437866211,0.9999998211860657],"type":"VEC2"},{"bufferView":23,"componentType":5121,"count":432,"max":[255,255,255],"min":[255,255,255],"type":"VEC3","normalized":true},{"bufferView":24,"componentType":5123,"count":2544,"max":[431],"min":[0],"type":"SCALAR"},{"bufferView":25,"componentType":5126,"count":227,"max":[0.0022668875753879547,0.0022544695530086756,0.00021794860367663205],"min":[-0.0022668864112347364,-0.002254468621686101,-0.0002179483708459884],"type":"VEC3"},{"bufferView":26,"componentType":5126,"count":227,"max":[0.9267934560775757,0.9217166900634766,0.995447039604187],"min":[-0.9267935752868652,-0.9217167496681213,-0.9954469799995422],"type":"VEC3"},{"bufferView":27,"componentType":5126,"count":227,"max":[0.9955427646636963,1],"min":[-0.016666650772094727,0],"type":"VEC2"},{"bufferView":28,"componentType":5121,"count":227,"max":[255,255,255],"min":[255,255,255],"type":"VEC3","normalized":true},{"bufferView":29,"componentType":5123,"count":1068,"max":[226],"min":[0],"type":"SCALAR"},{"bufferView":30,"componentType":5126,"count":4,"max":[0.5,0.5,0],"min":[-0.5,-0.5,0],"type":"VEC3"},{"bufferView":31,"componentType":5126,"count":4,"max":[0,0,1],"min":[0,0,1],"type":"VEC3"},{"bufferView":32,"componentType":5126,"count":4,"max":[1,1],"min":[0,0],"type":"VEC2"},{"bufferView":33,"componentType":5121,"count":4,"max":[255,255,255],"min":[255,255,255],"type":"VEC3","normalized":true},{"bufferView":34,"componentType":5123,"count":6,"max":[3],"min":[0],"type":"SCALAR"}],"materials":[{"pbrMetallicRoughness":{"baseColorFactor":[0.2704977910022518,0.2663556047920505,0.2746773120495699,1],"metallicFactor":0.045,"roughnessFactor":0.04},"extensions":{"KHR_materials_ior":{"ior":2.3333333333333335}}},{"pbrMetallicRoughness":{"baseColorFactor":[0.2704977910022518,0.2663556047920505,0.2746773120495699,1],"metallicFactor":0.107,"roughnessFactor":0.071},"extensions":{"KHR_materials_ior":{"ior":2.3333333333333335}}},{"pbrMetallicRoughness":{"baseColorFactor":[0.2704977910022518,0.2663556047920505,0.2746773120495699,1],"metallicFactor":0.107,"roughnessFactor":0.073},"extensions":{"KHR_materials_ior":{"ior":2.3333333333333335}}},{"pbrMetallicRoughness":{"baseColorFactor":[0.2704977910022518,0.2663556047920505,0.2746773120495699,1],"metallicFactor":0.045,"roughnessFactor":0.04},"extensions":{"KHR_materials_ior":{"ior":2.3333333333333335}}},{"pbrMetallicRoughness":{"baseColorFactor":[0.2704977910022518,0.2663556047920505,0.2746773120495699,1],"metallicFactor":0.5,"roughnessFactor":0.5},"name":"__DEFAULT"},{"pbrMetallicRoughness":{"baseColorFactor":[0.2704977910022518,0.2663556047920505,0.2746773120495699,1],"metallicFactor":0.105,"roughnessFactor":0.071},"extensions":{"KHR_materials_ior":{"ior":2.3333333333333335}}},{"pbrMetallicRoughness":{"baseColorFactor":[0.008568125615105716,0.06847816983662762,0.3231432091022285,1],"metallicFactor":0,"roughnessFactor":0.165},"doubleSided":true}],"meshes":[{"primitives":[{"mode":4,"attributes":{"POSITION":0,"NORMAL":1,"TEXCOORD_0":2,"COLOR_0":3},"indices":4,"material":0}]},{"primitives":[{"mode":4,"attributes":{"POSITION":5,"NORMAL":6,"TEXCOORD_0":7,"COLOR_0":8},"indices":9,"material":1}]},{"primitives":[{"mode":4,"attributes":{"POSITION":10,"NORMAL":11,"TEXCOORD_0":12,"COLOR_0":13},"indices":14,"material":2}]},{"primitives":[{"mode":4,"attributes":{"POSITION":15,"NORMAL":16,"TEXCOORD_0":17,"COLOR_0":18},"indices":19,"material":3}]},{"primitives":[{"mode":4,"attributes":{"POSITION":20,"NORMAL":21,"TEXCOORD_0":22,"COLOR_0":23},"indices":24,"material":4}]},{"primitives":[{"mode":4,"attributes":{"POSITION":25,"NORMAL":26,"TEXCOORD_0":27,"COLOR_0":28},"indices":29,"material":5}]},{"primitives":[{"mode":4,"attributes":{"POSITION":30,"NORMAL":31,"TEXCOORD_0":32,"COLOR_0":33},"indices":34,"material":6}]}],"extensionsUsed":["KHR_materials_ior"]}